<svg xmlns="http://www.w3.org/2000/svg" viewBox="0 0 64 64">
  <defs>
    <linearGradient id="background" x1="4" y1="4" x2="60" y2="60">
      <stop stop-color="#00bfff"/>
      <stop offset=".5" stop-color="#1648e8"/>
      <stop offset="1" stop-color="#a000e9"/>
    </linearGradient>
    <linearGradient id="shield" x1="18" y1="14" x2="47" y2="49">
      <stop stop-color="#fff"/>
      <stop offset=".45" stop-color="#70e5ff"/>
      <stop offset="1" stop-color="#7764ff"/>
    </linearGradient>
    <linearGradient id="panel" x1="14" y1="41" x2="52" y2="55">
      <stop stop-color="#08358f"/>
      <stop offset="1" stop-color="#35107e"/>
    </linearGradient>
    <filter id="shadow" x="-30%" y="-30%" width="160%" height="160%">
      <feDropShadow dx="0" dy="2" stdDeviation="2" flood-color="#030826" flood-opacity=".45"/>
    </filter>
  </defs>

  <rect width="64" height="64" rx="14" fill="url(#background)"/>
  <path
    d="M32 10c7 6 13 8 20 10v12c0 12-7 20-20 27C19 52 12 44 12 32V20c7-2 13-4 20-10Z"
    fill="#061a72"
    stroke="url(#shield)"
    stroke-width="3"
  />
  <path d="m37 19 1.6 4.4L43 25l-4.4 1.6L37 31l-1.6-4.4L31 25l4.4-1.6L37 19Z" fill="#fff"/>
  <path d="m25 21 1 2.8 2.8 1-2.8 1-1 2.8-1-2.8-2.8-1 2.8-1 1-2.8Z" fill="#79edff"/>
  <path d="m22 42 14-14 4 4-14 14Z" fill="#fff" stroke="#9cecff" stroke-width="1.5"/>

  <g filter="url(#shadow)">
    <rect x="8" y="40" width="48" height="15" rx="7.5" fill="url(#panel)" stroke="#8ce7ff" stroke-width="1.5"/>
    <text x="15" y="51" fill="#b7f3ff" font-family="Arial, sans-serif" font-size="11" font-weight="700">••••</text>
    <path d="M47 46v-1.5a3 3 0 0 1 6 0V46m-6 0h6v5h-6Z" fill="none" stroke="#fff" stroke-width="1.5" stroke-linejoin="round"/>
  </g>
</svg>
